<svg id="svg" version="1.1" xmlns="http://www.w3.org/2000/svg" xmlns:xlink="http://www.w3.org/1999/xlink" width="400" height="75.62769464874462" viewBox="0, 0, 400,75.62769464874462"><g id="svgg"><path id="path0" d="M67.833 6.277 C 43.873 8.623,16.120 27.022,10.125 44.535 L 9.424 46.583 9.424 50.167 C 9.424 53.446,9.457 53.855,9.810 54.991 C 11.934 61.818,17.929 66.708,27.000 69.012 C 29.637 69.682,30.100 69.609,28.000 68.854 C 9.946 62.362,8.403 46.217,24.318 30.321 C 36.218 18.435,50.920 10.926,69.500 7.244 C 72.112 6.727,74.281 6.272,74.319 6.235 C 74.400 6.155,68.697 6.193,67.833 6.277 M68.250 16.351 C 53.880 17.242,35.721 30.031,31.578 42.178 C 28.603 50.904,33.517 58.198,43.870 60.422 C 45.684 60.811,45.768 60.665,44.102 60.017 C 34.949 56.457,32.322 47.779,37.646 38.697 C 43.823 28.162,61.269 17.245,72.071 17.157 C 73.553 17.145,74.733 16.946,74.250 16.789 C 73.029 16.394,70.519 16.210,68.250 16.351 M70.802 19.753 C 70.754 19.801,70.883 20.170,71.087 20.574 C 72.917 24.188,70.300 29.406,64.520 33.671 C 60.644 36.530,52.698 40.638,48.417 41.996 C 47.531 42.276,47.499 42.316,47.237 43.441 C 46.923 44.792,46.965 44.797,49.934 43.745 C 60.807 39.892,68.877 35.255,72.915 30.542 C 76.627 26.208,76.765 20.621,73.178 19.851 C 72.280 19.659,70.952 19.604,70.802 19.753 M106.333 33.502 C 98.950 34.201,95.275 39.152,96.001 47.425 C 96.598 54.241,100.602 57.583,108.167 57.583 C 111.903 57.583,112.715 57.458,115.333 56.480 L 115.833 56.293 115.833 54.396 C 115.833 52.508,115.723 52.183,115.242 52.655 C 114.415 53.466,109.617 54.335,107.724 54.017 C 103.228 53.262,101.276 50.688,101.265 45.500 C 101.248 37.725,105.979 35.136,114.797 38.094 C 115.190 38.226,115.547 38.333,115.589 38.333 C 115.632 38.333,115.667 37.439,115.667 36.346 L 115.667 34.359 115.125 34.188 C 114.827 34.094,114.283 33.972,113.917 33.917 C 113.550 33.863,112.800 33.750,112.250 33.668 C 110.800 33.449,107.779 33.365,106.333 33.502 M223.583 33.446 C 217.542 33.964,214.847 40.186,218.906 44.246 C 219.746 45.085,222.119 46.833,222.419 46.833 C 222.460 46.833,222.984 47.133,223.583 47.500 C 224.182 47.867,224.727 48.170,224.795 48.173 C 225.667 48.222,227.333 50.351,227.333 51.417 C 227.333 54.406,222.781 55.108,217.725 52.896 C 217.436 52.770,217.155 52.667,217.100 52.667 C 217.045 52.667,217.000 53.631,217.000 54.809 L 217.000 56.951 218.542 57.267 C 222.396 58.055,227.302 57.661,229.485 56.387 C 233.589 53.992,233.657 48.304,229.617 45.289 C 228.442 44.411,228.093 44.192,224.807 42.276 C 222.445 40.898,221.668 39.904,222.048 38.750 C 222.720 36.712,225.448 36.356,229.611 37.763 C 230.268 37.985,230.850 38.167,230.903 38.167 C 230.956 38.167,231.000 37.272,231.000 36.178 C 231.000 33.960,231.093 34.117,229.667 33.921 C 229.254 33.864,228.579 33.751,228.167 33.670 C 227.293 33.497,224.549 33.363,223.583 33.446 M242.500 33.448 C 238.437 33.742,236.083 36.084,236.083 39.833 C 236.083 43.038,237.264 44.523,241.917 47.175 C 246.170 49.599,246.957 50.623,246.004 52.493 C 244.965 54.529,241.851 54.752,237.208 53.124 L 236.000 52.700 236.000 54.842 L 236.000 56.985 236.625 57.086 C 236.969 57.141,237.625 57.275,238.083 57.383 C 239.518 57.721,245.220 57.646,246.400 57.273 C 249.736 56.218,251.500 53.949,251.500 50.712 C 251.500 47.417,249.907 45.712,243.597 42.251 C 240.080 40.323,239.972 37.679,243.381 36.964 C 244.544 36.720,247.971 37.335,249.206 38.009 C 249.787 38.326,249.833 38.192,249.833 36.170 C 249.833 33.874,250.117 34.178,247.583 33.764 C 245.972 33.501,243.714 33.360,242.500 33.448 M383.750 33.444 C 376.703 34.072,374.684 41.828,380.587 45.593 C 380.860 45.767,381.121 45.954,381.167 46.010 C 381.268 46.132,383.320 47.333,383.427 47.333 C 383.728 47.333,386.577 49.291,386.897 49.718 C 388.012 51.202,387.465 53.098,385.705 53.853 C 384.163 54.514,379.992 54.012,377.883 52.912 C 377.627 52.778,377.360 52.668,377.292 52.668 C 377.223 52.667,377.167 53.631,377.167 54.809 L 377.167 56.951 378.708 57.267 C 381.100 57.758,386.340 57.723,387.818 57.207 C 391.218 56.020,392.585 54.166,392.581 50.750 C 392.576 47.216,391.278 45.741,385.394 42.583 C 382.377 40.964,381.425 39.357,382.654 37.957 C 383.836 36.610,385.954 36.549,389.701 37.754 C 390.407 37.981,391.026 38.167,391.076 38.167 C 391.126 38.167,391.167 37.272,391.167 36.178 L 391.167 34.190 390.292 34.024 C 387.725 33.535,385.219 33.313,383.750 33.444 M125.945 36.875 C 123.848 42.352,122.657 45.418,122.499 45.750 C 122.412 45.933,121.922 47.171,121.410 48.500 C 120.898 49.829,119.959 52.267,119.324 53.917 C 118.688 55.567,118.168 56.973,118.168 57.042 C 118.167 57.110,118.983 57.167,119.980 57.167 L 121.793 57.167 122.006 56.625 C 122.123 56.327,122.348 55.783,122.505 55.417 C 122.662 55.050,122.950 54.319,123.145 53.792 C 123.340 53.265,123.655 52.421,123.845 51.917 L 124.191 51.000 128.831 51.000 L 133.471 51.000 133.925 52.208 C 134.175 52.873,134.508 53.717,134.666 54.083 C 134.824 54.450,135.163 55.294,135.420 55.958 L 135.886 57.167 138.443 57.167 C 139.849 57.167,141.000 57.137,141.000 57.100 C 141.000 57.015,139.542 53.194,139.340 52.750 C 139.257 52.567,138.845 51.517,138.426 50.417 C 138.006 49.317,137.589 48.286,137.498 48.127 C 137.407 47.968,137.333 47.754,137.333 47.652 C 137.333 47.550,137.224 47.231,137.089 46.942 C 136.955 46.653,136.391 45.217,135.836 43.750 C 135.281 42.283,134.755 40.933,134.667 40.750 C 134.578 40.567,134.052 39.217,133.497 37.750 C 132.942 36.283,132.374 34.840,132.236 34.542 L 131.984 34.000 129.515 34.000 L 127.045 34.000 125.945 36.875 M144.833 45.583 L 144.833 57.167 147.167 57.167 L 149.500 57.167 149.500 52.500 L 149.500 47.833 150.735 47.833 L 151.970 47.833 154.787 52.458 L 157.604 57.083 160.552 57.129 C 162.843 57.164,163.500 57.127,163.500 56.963 C 163.500 56.786,161.624 53.919,161.343 53.667 C 161.292 53.621,160.767 52.871,160.176 52.000 C 159.586 51.129,159.061 50.379,159.010 50.333 C 158.959 50.288,158.510 49.650,158.012 48.917 C 157.514 48.183,156.933 47.371,156.720 47.112 C 156.209 46.490,156.227 46.399,156.932 46.065 C 161.129 44.073,161.808 36.788,157.975 34.874 C 156.416 34.096,155.544 34.000,150.018 34.000 L 144.833 34.000 144.833 45.583 M167.500 45.585 L 167.500 57.170 175.125 57.127 L 182.750 57.083 182.750 55.417 L 182.750 53.750 177.542 53.706 L 172.333 53.662 172.333 50.248 L 172.333 46.833 176.250 46.833 L 180.167 46.833 180.167 45.167 L 180.167 43.500 176.250 43.500 L 172.333 43.500 172.333 40.500 L 172.333 37.500 177.167 37.500 L 182.000 37.500 182.000 35.750 L 182.000 34.000 174.750 34.000 L 167.500 34.000 167.500 45.585 M198.667 45.583 L 198.667 57.167 206.250 57.167 L 213.833 57.167 213.833 55.417 L 213.833 53.667 208.667 53.667 L 203.500 53.667 203.500 50.250 L 203.500 46.833 207.417 46.833 L 211.333 46.833 211.333 45.167 L 211.333 43.500 207.417 43.500 L 203.500 43.500 203.500 40.503 L 203.500 37.505 208.292 37.461 L 213.083 37.417 213.131 35.708 L 213.178 34.000 205.922 34.000 L 198.667 34.000 198.667 45.583 M256.167 45.583 L 256.167 57.167 263.833 57.167 L 271.500 57.167 271.500 55.417 L 271.500 53.667 266.333 53.667 L 261.167 53.667 261.167 50.250 L 261.167 46.833 265.083 46.833 L 269.000 46.833 269.000 45.167 L 269.000 43.500 265.083 43.500 L 261.167 43.500 261.167 40.500 L 261.167 37.500 265.917 37.500 L 270.667 37.500 270.667 35.750 L 270.667 34.000 263.417 34.000 L 256.167 34.000 256.167 45.583 M276.000 45.583 L 276.000 57.167 278.000 57.167 L 280.000 57.167 280.000 49.573 C 280.000 45.397,280.064 42.020,280.143 42.069 C 280.221 42.117,281.381 43.790,282.719 45.787 C 284.058 47.783,286.033 50.729,287.109 52.333 C 288.184 53.938,289.108 55.288,289.163 55.333 C 289.217 55.379,289.510 55.810,289.815 56.292 L 290.368 57.167 292.601 57.167 L 294.833 57.167 294.833 45.583 L 294.833 34.000 292.835 34.000 L 290.837 34.000 290.793 41.594 L 290.750 49.188 289.904 47.969 C 289.439 47.299,288.119 45.362,286.972 43.667 C 285.824 41.971,284.420 39.908,283.851 39.083 C 283.281 38.258,282.276 36.778,281.616 35.793 L 280.417 34.003 278.208 34.002 L 276.000 34.000 276.000 45.583 M298.667 35.750 L 298.667 37.500 302.750 37.500 L 306.833 37.500 306.833 47.333 L 306.833 57.167 309.333 57.167 L 311.833 57.167 311.833 47.333 L 311.833 37.500 315.917 37.500 L 320.000 37.500 320.000 35.750 L 320.000 34.000 309.333 34.000 L 298.667 34.000 298.667 35.750 M323.833 45.583 L 323.833 57.167 326.333 57.167 L 328.833 57.167 328.833 45.583 L 328.833 34.000 326.333 34.000 L 323.833 34.000 323.833 45.583 M341.278 34.693 C 341.113 35.075,340.598 36.406,340.135 37.652 C 339.671 38.897,339.158 40.217,338.994 40.583 C 338.830 40.950,338.389 42.075,338.014 43.083 C 337.638 44.092,337.257 45.067,337.167 45.250 C 337.077 45.433,336.584 46.671,336.073 48.000 C 335.561 49.329,334.616 51.767,333.971 53.417 C 332.333 57.613,332.273 57.167,334.469 57.167 C 336.234 57.167,336.316 57.151,336.424 56.792 C 336.486 56.585,336.640 56.192,336.765 55.917 C 336.890 55.642,337.363 54.442,337.817 53.250 L 338.641 51.083 343.297 51.039 L 347.953 50.995 348.248 51.789 C 348.410 52.226,348.639 52.808,348.757 53.083 C 348.959 53.551,349.991 56.228,350.220 56.875 C 350.360 57.273,355.333 57.327,355.333 56.931 C 355.333 56.714,354.365 54.027,354.008 53.250 C 353.923 53.067,353.594 52.242,353.275 51.417 C 352.957 50.592,352.171 48.567,351.528 46.917 C 350.885 45.267,350.165 43.392,349.928 42.750 C 349.691 42.108,349.423 41.433,349.332 41.250 C 349.242 41.067,348.716 39.717,348.164 38.250 C 347.612 36.783,347.088 35.433,347.000 35.250 C 346.912 35.067,346.766 34.710,346.674 34.458 L 346.508 34.000 344.043 34.000 L 341.579 34.000 341.278 34.693 M359.333 45.583 L 359.333 57.167 367.000 57.167 L 374.667 57.167 374.667 55.417 L 374.667 53.667 369.417 53.667 L 364.167 53.667 364.167 43.833 L 364.167 34.000 361.750 34.000 L 359.333 34.000 359.333 45.583 M154.019 37.989 C 155.033 38.500,155.386 39.039,155.471 40.207 C 155.655 42.758,153.801 44.333,150.614 44.333 L 149.500 44.333 149.500 40.893 L 149.500 37.454 151.394 37.537 C 152.903 37.604,153.437 37.696,154.019 37.989 M77.873 40.963 C 71.119 51.309,62.828 57.230,54.125 57.923 C 52.263 58.072,52.287 58.210,54.242 58.578 C 63.169 60.258,74.287 53.606,81.810 42.083 C 83.526 39.455,83.201 39.663,85.048 40.020 C 87.574 40.509,88.833 40.595,88.833 40.278 C 88.833 39.952,81.108 38.300,79.760 38.338 C 79.663 38.341,78.814 39.522,77.873 40.963 M343.916 40.667 C 344.169 41.354,344.473 42.142,344.591 42.417 C 344.709 42.692,345.151 43.817,345.572 44.917 C 345.993 46.017,346.417 47.055,346.513 47.225 C 346.775 47.681,346.805 47.677,343.287 47.629 L 340.027 47.583 341.022 45.000 C 341.570 43.579,342.295 41.690,342.634 40.801 C 342.973 39.912,343.296 39.237,343.353 39.301 C 343.409 39.365,343.662 39.979,343.916 40.667 M129.329 40.375 C 129.535 40.948,129.802 41.642,129.923 41.917 C 130.044 42.192,130.490 43.317,130.915 44.417 C 131.339 45.517,131.801 46.667,131.941 46.972 C 132.282 47.717,132.462 47.680,128.793 47.629 L 125.538 47.583 126.275 45.667 C 126.679 44.612,127.112 43.525,127.237 43.250 C 127.361 42.975,127.745 41.981,128.090 41.042 C 128.828 39.033,128.844 39.024,129.329 40.375 M62.333 60.760 C 61.462 60.974,59.813 61.294,58.667 61.471 C 56.885 61.746,56.305 61.920,54.667 62.668 C 50.234 64.693,45.466 65.794,40.882 65.852 L 39.417 65.870 40.333 66.125 C 41.910 66.563,48.410 66.514,50.833 66.047 C 54.865 65.269,58.679 63.763,62.878 61.290 C 63.919 60.676,64.381 60.307,64.052 60.352 C 63.977 60.362,63.204 60.545,62.333 60.760 M76.411 64.342 C 76.241 64.618,76.509 64.803,77.167 64.863 L 77.750 64.917 77.833 66.667 C 77.945 69.010,78.392 69.249,78.458 67.000 C 78.519 64.954,78.553 64.863,79.292 64.802 C 79.713 64.767,79.917 64.669,79.917 64.500 C 79.917 64.183,76.602 64.033,76.411 64.342 M80.427 65.495 C 80.289 67.084,80.439 68.333,80.769 68.333 C 80.948 68.333,81.000 68.013,81.000 66.917 C 81.000 65.341,81.104 65.230,81.785 66.083 C 82.365 66.811,82.517 66.811,83.072 66.083 C 83.724 65.228,83.833 65.346,83.833 66.907 C 83.833 68.179,83.991 68.752,84.234 68.359 C 84.627 67.724,84.499 64.167,84.084 64.167 C 83.962 64.167,83.565 64.504,83.201 64.917 C 82.838 65.329,82.485 65.667,82.417 65.667 C 82.348 65.667,81.995 65.329,81.632 64.917 C 80.699 63.857,80.564 63.922,80.427 65.495 " stroke="none" fill="#10549c" fill-rule="evenodd"></path><path id="path1" d="M73.486 6.902 C 73.448 6.940,72.629 7.012,71.667 7.063 C 68.493 7.230,62.109 8.672,57.083 10.355 C 37.520 16.908,19.189 31.566,14.592 44.333 C 8.094 62.380,27.730 75.243,53.114 69.567 C 66.349 66.608,77.776 57.551,87.579 42.250 L 88.647 40.583 86.782 40.303 C 85.756 40.149,84.605 39.952,84.225 39.866 C 83.340 39.666,83.462 39.554,81.810 42.083 C 75.966 51.034,67.999 57.150,60.554 58.399 C 57.315 58.942,52.667 58.790,52.667 58.140 C 52.667 58.063,52.534 58.000,52.373 58.000 C 49.765 58.000,46.667 52.798,46.667 48.420 L 46.667 47.370 47.292 47.121 C 47.635 46.984,48.517 46.706,49.250 46.502 C 71.894 40.229,86.957 29.100,83.317 21.333 C 80.032 14.322,64.740 16.126,51.290 25.112 C 32.769 37.486,29.393 53.909,44.111 60.032 C 49.251 62.171,57.660 62.325,63.896 60.394 C 64.477 60.214,64.019 60.618,62.878 61.290 C 58.677 63.764,54.859 65.271,50.833 66.046 C 48.329 66.528,42.059 66.580,40.417 66.133 C 39.867 65.983,38.967 65.736,38.417 65.584 C 27.477 62.555,23.597 49.278,29.894 36.417 C 36.539 22.845,53.290 12.181,74.901 7.765 C 78.251 7.080,78.350 7.048,77.484 6.944 C 76.487 6.825,73.595 6.794,73.486 6.902 M73.178 19.851 C 76.765 20.621,76.627 26.208,72.915 30.542 C 68.877 35.255,60.807 39.892,49.934 43.745 C 46.956 44.800,46.917 44.795,47.259 43.414 C 47.395 42.866,47.545 42.229,47.592 42.000 C 49.006 35.125,55.189 26.679,61.750 22.662 C 65.430 20.409,70.250 19.223,73.178 19.851 " stroke="none" fill="#fbc354" fill-rule="evenodd"></path><path id="path2" d="M0.000 37.750 L 0.000 75.500 47.167 75.500 L 94.333 75.500 94.333 37.750 L 94.333 0.000 47.167 0.000 L 0.000 0.000 0.000 37.750 M73.500 6.420 C 72.996 6.540,72.146 6.726,71.612 6.833 C 70.200 7.118,70.534 7.187,72.429 7.003 C 77.811 6.479,79.158 6.894,74.901 7.765 C 57.202 11.382,42.680 19.183,34.286 29.583 C 23.718 42.676,24.475 58.995,35.907 64.571 C 40.292 66.710,47.100 66.038,54.583 62.728 L 56.417 61.917 53.000 61.726 C 50.659 61.595,48.901 61.398,47.417 61.102 C 46.225 60.864,44.650 60.552,43.917 60.409 C 32.524 58.185,27.841 49.533,32.652 39.595 C 39.040 26.396,61.107 13.895,73.250 16.596 C 73.892 16.738,74.867 16.930,75.417 17.022 C 81.433 18.028,83.777 19.925,83.728 23.750 C 83.626 31.612,69.609 40.862,49.250 46.502 C 48.517 46.706,47.635 46.984,47.292 47.121 L 46.667 47.370 46.667 48.420 C 46.667 53.975,49.877 58.203,53.887 57.931 C 62.666 57.333,70.907 51.526,77.794 41.083 C 78.761 39.617,79.576 38.388,79.604 38.353 C 79.779 38.136,88.833 39.914,88.833 40.165 C 88.833 40.621,84.321 47.159,81.988 50.083 C 68.690 66.751,51.463 73.602,31.917 69.995 C 27.430 69.167,26.661 68.988,24.407 68.251 C 14.492 65.009,9.423 58.892,9.424 50.167 L 9.424 46.583 10.125 44.535 C 16.120 27.022,43.873 8.623,67.833 6.277 C 69.748 6.090,74.401 6.207,73.500 6.420 M68.019 20.087 C 59.510 21.963,50.541 31.269,47.836 41.029 L 47.510 42.206 48.010 42.106 C 48.861 41.936,53.279 40.050,56.250 38.587 C 66.995 33.300,72.366 27.492,71.523 22.073 C 71.182 19.887,70.551 19.529,68.019 20.087 M79.917 64.500 C 79.917 64.669,79.713 64.767,79.292 64.802 C 78.553 64.863,78.519 64.954,78.458 67.000 C 78.392 69.249,77.945 69.010,77.833 66.667 L 77.750 64.917 77.167 64.863 C 76.509 64.803,76.241 64.618,76.411 64.342 C 76.602 64.033,79.917 64.183,79.917 64.500 M81.632 64.917 C 81.995 65.329,82.348 65.667,82.417 65.667 C 82.485 65.667,82.838 65.329,83.201 64.917 C 83.565 64.504,83.962 64.167,84.084 64.167 C 84.499 64.167,84.627 67.724,84.234 68.359 C 83.991 68.752,83.833 68.179,83.833 66.907 C 83.833 65.346,83.724 65.228,83.072 66.083 C 82.517 66.811,82.365 66.811,81.785 66.083 C 81.104 65.230,81.000 65.341,81.000 66.917 C 81.000 68.013,80.948 68.333,80.769 68.333 C 80.439 68.333,80.289 67.084,80.427 65.495 C 80.564 63.922,80.699 63.857,81.632 64.917 " stroke="none" fill="#fbfbfb" fill-rule="evenodd"></path></g></svg>