<?xml version="1.0" encoding="UTF-8" standalone="no"?>
<svg
   xmlns:dc="http://purl.org/dc/elements/1.1/"
   xmlns:cc="http://creativecommons.org/ns#"
   xmlns:rdf="http://www.w3.org/1999/02/22-rdf-syntax-ns#"
   xmlns:svg="http://www.w3.org/2000/svg"
   xmlns="http://www.w3.org/2000/svg"
   xmlns:sodipodi="http://sodipodi.sourceforge.net/DTD/sodipodi-0.dtd"
   xmlns:inkscape="http://www.inkscape.org/namespaces/inkscape"
   id="svg"
   version="1.1"
   width="452"
   height="112.62769"
   viewBox="0 0 452 112.6277"
   sodipodi:docname="CE Logo Round.svg"
   inkscape:version="1.0.2 (e86c870879, 2021-01-15, custom)">
  <metadata
     id="metadata11">
    <rdf:RDF>
      <cc:Work
         rdf:about="">
        <dc:format>image/svg+xml</dc:format>
        <dc:type
           rdf:resource="http://purl.org/dc/dcmitype/StillImage" />
        <dc:title></dc:title>
      </cc:Work>
    </rdf:RDF>
  </metadata>
  <defs
     id="defs9" />
  <sodipodi:namedview
     pagecolor="#ffffff"
     bordercolor="#666666"
     borderopacity="1"
     objecttolerance="10"
     gridtolerance="10"
     guidetolerance="10"
     inkscape:pageopacity="0"
     inkscape:pageshadow="2"
     inkscape:window-width="1920"
     inkscape:window-height="1017"
     id="namedview7"
     showgrid="false"
     inkscape:zoom="2.77"
     inkscape:cx="226.57159"
     inkscape:cy="37.813847"
     inkscape:window-x="-8"
     inkscape:window-y="-8"
     inkscape:window-maximized="1"
     inkscape:current-layer="layer2"
     inkscape:document-rotation="0" />
  <g
     inkscape:groupmode="layer"
     id="layer2"
     inkscape:label="Backgroud"
     style="display:inline;opacity:1">
    <rect
       style="display:inline;opacity:1;fill:#ffffff;fill-opacity:1;stroke:#ffffff;stroke-width:2.85861;stroke-opacity:1"
       id="rect839"
       width="445.90649"
       height="106.99325"
       x="2.9982798"
       y="2.9223425"
       ry="53.496624" />
  </g>
  <g
     inkscape:groupmode="layer"
     id="layer1"
     inkscape:label="Layer 1"
     style="display:inline">
    <g
       id="svgg"
       transform="translate(15.523466,14.079422)">
      <path
         id="path0"
         d="M 67.833,6.277 C 43.873,8.623 16.12,27.022 10.125,44.535 l -0.701,2.048 v 3.584 c 0,3.279 0.033,3.688 0.386,4.824 2.124,6.827 8.119,11.717 17.19,14.021 2.637,0.67 3.1,0.597 1,-0.158 C 9.946,62.362 8.403,46.217 24.318,30.321 36.218,18.435 50.92,10.926 69.5,7.244 72.112,6.727 74.281,6.272 74.319,6.235 74.4,6.155 68.697,6.193 67.833,6.277 m 0.417,10.074 c -14.37,0.891 -32.529,13.68 -36.672,25.827 -2.975,8.726 1.939,16.02 12.292,18.244 1.814,0.389 1.898,0.243 0.232,-0.405 -9.153,-3.56 -11.78,-12.238 -6.456,-21.32 6.177,-10.535 23.623,-21.452 34.425,-21.54 1.482,-0.012 2.662,-0.211 2.179,-0.368 -1.221,-0.395 -3.731,-0.579 -6,-0.438 m 2.552,3.402 c -0.048,0.048 0.081,0.417 0.285,0.821 1.83,3.614 -0.787,8.832 -6.567,13.097 -3.876,2.859 -11.822,6.967 -16.103,8.325 -0.886,0.28 -0.918,0.32 -1.18,1.445 -0.314,1.351 -0.272,1.356 2.697,0.304 10.873,-3.853 18.943,-8.49 22.981,-13.203 3.712,-4.334 3.85,-9.921 0.263,-10.691 -0.898,-0.192 -2.226,-0.247 -2.376,-0.098 m 35.531,13.749 c -7.383,0.699 -11.058,5.65 -10.332,13.923 0.597,6.816 4.601,10.158 12.166,10.158 3.736,0 4.548,-0.125 7.166,-1.103 l 0.5,-0.187 v -1.897 c 0,-1.888 -0.11,-2.213 -0.591,-1.741 -0.827,0.811 -5.625,1.68 -7.518,1.362 -4.496,-0.755 -6.448,-3.329 -6.459,-8.517 -0.017,-7.775 4.714,-10.364 13.532,-7.406 0.393,0.132 0.75,0.239 0.792,0.239 0.043,0 0.078,-0.894 0.078,-1.987 v -1.987 l -0.542,-0.171 c -0.298,-0.094 -0.842,-0.216 -1.208,-0.271 -0.367,-0.054 -1.117,-0.167 -1.667,-0.249 -1.45,-0.219 -4.471,-0.303 -5.917,-0.166 m 117.25,-0.056 c -6.041,0.518 -8.736,6.74 -4.677,10.8 0.84,0.839 3.213,2.587 3.513,2.587 0.041,0 0.565,0.3 1.164,0.667 0.599,0.367 1.144,0.67 1.212,0.673 0.872,0.049 2.538,2.178 2.538,3.244 0,2.989 -4.552,3.691 -9.608,1.479 -0.289,-0.126 -0.57,-0.229 -0.625,-0.229 -0.055,0 -0.1,0.964 -0.1,2.142 v 2.142 l 1.542,0.316 c 3.854,0.788 8.76,0.394 10.943,-0.88 4.104,-2.395 4.172,-8.083 0.132,-11.098 -1.175,-0.878 -1.524,-1.097 -4.81,-3.013 -2.362,-1.378 -3.139,-2.372 -2.759,-3.526 0.672,-2.038 3.4,-2.394 7.563,-0.987 0.657,0.222 1.239,0.404 1.292,0.404 0.053,0 0.097,-0.895 0.097,-1.989 0,-2.218 0.093,-2.061 -1.333,-2.257 -0.413,-0.057 -1.088,-0.17 -1.5,-0.251 -0.874,-0.173 -3.618,-0.307 -4.584,-0.224 m 18.917,0.002 c -4.063,0.294 -6.417,2.636 -6.417,6.385 0,3.205 1.181,4.69 5.834,7.342 4.253,2.424 5.04,3.448 4.087,5.318 -1.039,2.036 -4.153,2.259 -8.796,0.631 L 236,52.7 v 2.142 2.143 l 0.625,0.101 c 0.344,0.055 1,0.189 1.458,0.297 1.435,0.338 7.137,0.263 8.317,-0.11 3.336,-1.055 5.1,-3.324 5.1,-6.561 0,-3.295 -1.593,-5 -7.903,-8.461 -3.517,-1.928 -3.625,-4.572 -0.216,-5.287 1.163,-0.244 4.59,0.371 5.825,1.045 0.581,0.317 0.627,0.183 0.627,-1.839 0,-2.296 0.284,-1.992 -2.25,-2.406 -1.611,-0.263 -3.869,-0.404 -5.083,-0.316 m 141.25,-0.004 c -7.047,0.628 -9.066,8.384 -3.163,12.149 0.273,0.174 0.534,0.361 0.58,0.417 0.101,0.122 2.153,1.323 2.26,1.323 0.301,0 3.15,1.958 3.47,2.385 1.115,1.484 0.568,3.38 -1.192,4.135 -1.542,0.661 -5.713,0.159 -7.822,-0.941 -0.256,-0.134 -0.523,-0.244 -0.591,-0.244 -0.069,-10e-4 -0.125,0.963 -0.125,2.141 v 2.142 l 1.541,0.316 c 2.392,0.491 7.632,0.456 9.11,-0.06 3.4,-1.187 4.767,-3.041 4.763,-6.457 -0.005,-3.534 -1.303,-5.009 -7.187,-8.167 -3.017,-1.619 -3.969,-3.226 -2.74,-4.626 1.182,-1.347 3.3,-1.408 7.047,-0.203 0.706,0.227 1.325,0.413 1.375,0.413 0.05,0 0.091,-0.895 0.091,-1.989 V 34.19 l -0.875,-0.166 c -2.567,-0.489 -5.073,-0.711 -6.542,-0.58 m -257.805,3.431 c -2.097,5.477 -3.288,8.543 -3.446,8.875 -0.087,0.183 -0.577,1.421 -1.089,2.75 -0.512,1.329 -1.451,3.767 -2.086,5.417 -0.636,1.65 -1.156,3.056 -1.156,3.125 -0.001,0.068 0.815,0.125 1.812,0.125 h 1.813 l 0.213,-0.542 c 0.117,-0.298 0.342,-0.842 0.499,-1.208 0.157,-0.367 0.445,-1.098 0.64,-1.625 0.195,-0.527 0.51,-1.371 0.7,-1.875 L 124.191,51 h 4.64 4.64 l 0.454,1.208 c 0.25,0.665 0.583,1.509 0.741,1.875 0.158,0.367 0.497,1.211 0.754,1.875 l 0.466,1.209 h 2.557 c 1.406,0 2.557,-0.03 2.557,-0.067 0,-0.085 -1.458,-3.906 -1.66,-4.35 -0.083,-0.183 -0.495,-1.233 -0.914,-2.333 -0.42,-1.1 -0.837,-2.131 -0.928,-2.29 -0.091,-0.159 -0.165,-0.373 -0.165,-0.475 0,-0.102 -0.109,-0.421 -0.244,-0.71 -0.134,-0.289 -0.698,-1.725 -1.253,-3.192 -0.555,-1.467 -1.081,-2.817 -1.169,-3 -0.089,-0.183 -0.615,-1.533 -1.17,-3 -0.555,-1.467 -1.123,-2.91 -1.261,-3.208 L 131.984,34 h -2.469 -2.47 l -1.1,2.875 m 18.888,8.708 v 11.584 h 2.334 2.333 V 52.5 47.833 h 1.235 1.235 l 2.817,4.625 2.817,4.625 2.948,0.046 c 2.291,0.035 2.948,-0.002 2.948,-0.166 0,-0.177 -1.876,-3.044 -2.157,-3.296 -0.051,-0.046 -0.576,-0.796 -1.167,-1.667 -0.59,-0.871 -1.115,-1.621 -1.166,-1.667 -0.051,-0.045 -0.5,-0.683 -0.998,-1.416 -0.498,-0.734 -1.079,-1.546 -1.292,-1.805 -0.511,-0.622 -0.493,-0.713 0.212,-1.047 4.197,-1.992 4.876,-9.277 1.043,-11.191 C 156.416,34.096 155.544,34 150.018,34 h -5.185 V 45.583 M 167.5,45.585 V 57.17 l 7.625,-0.043 7.625,-0.044 V 55.417 53.75 l -5.208,-0.044 -5.209,-0.044 v -3.414 -3.415 h 3.917 3.917 V 45.167 43.5 h -3.917 -3.917 v -3 -3 H 177.167 182 V 35.75 34 h -7.25 -7.25 v 11.585 m 31.167,-0.002 v 11.584 h 7.583 7.583 v -1.75 -1.75 H 208.667 203.5 V 50.25 46.833 h 3.917 3.916 V 45.167 43.5 h -3.916 -3.917 v -2.997 -2.998 l 4.792,-0.044 4.791,-0.044 0.048,-1.709 0.047,-1.708 h -7.256 -7.255 v 11.583 m 57.5,0 v 11.584 h 7.666 7.667 v -1.75 -1.75 h -5.167 -5.166 V 50.25 46.833 H 265.083 269 V 45.167 43.5 h -3.917 -3.916 v -3 -3 h 4.75 4.75 V 35.75 34 h -7.25 -7.25 v 11.583 m 19.833,0 v 11.584 h 2 2 v -7.594 c 0,-4.176 0.064,-7.553 0.143,-7.504 0.078,0.048 1.238,1.721 2.576,3.718 1.339,1.996 3.314,4.942 4.39,6.546 1.075,1.605 1.999,2.955 2.054,3 0.054,0.046 0.347,0.477 0.652,0.959 l 0.553,0.875 h 2.233 2.232 V 45.583 34 h -1.998 -1.998 l -0.044,7.594 -0.043,7.594 -0.846,-1.219 c -0.465,-0.67 -1.785,-2.607 -2.932,-4.302 -1.148,-1.696 -2.552,-3.759 -3.121,-4.584 -0.57,-0.825 -1.575,-2.305 -2.235,-3.29 l -1.199,-1.79 -2.209,-10e-4 L 276,34 v 11.583 m 22.667,-9.833 v 1.75 h 4.083 4.083 v 9.833 9.834 h 2.5 2.5 V 47.333 37.5 H 315.917 320 V 35.75 34 h -10.667 -10.666 v 1.75 m 25.166,9.833 v 11.584 h 2.5 2.5 V 45.583 34 h -2.5 -2.5 v 11.583 m 17.445,-10.89 c -0.165,0.382 -0.68,1.713 -1.143,2.959 -0.464,1.245 -0.977,2.565 -1.141,2.931 -0.164,0.367 -0.605,1.492 -0.98,2.5 -0.376,1.009 -0.757,1.984 -0.847,2.167 -0.09,0.183 -0.583,1.421 -1.094,2.75 -0.512,1.329 -1.457,3.767 -2.102,5.417 -1.638,4.196 -1.698,3.75 0.498,3.75 1.765,0 1.847,-0.016 1.955,-0.375 0.062,-0.207 0.216,-0.6 0.341,-0.875 0.125,-0.275 0.598,-1.475 1.052,-2.667 l 0.824,-2.167 4.656,-0.044 4.656,-0.044 0.295,0.794 c 0.162,0.437 0.391,1.019 0.509,1.294 0.202,0.468 1.234,3.145 1.463,3.792 0.14,0.398 5.113,0.452 5.113,0.056 0,-0.217 -0.968,-2.904 -1.325,-3.681 -0.085,-0.183 -0.414,-1.008 -0.733,-1.833 -0.318,-0.825 -1.104,-2.85 -1.747,-4.5 -0.643,-1.65 -1.363,-3.525 -1.6,-4.167 -0.237,-0.642 -0.505,-1.317 -0.596,-1.5 -0.09,-0.183 -0.616,-1.533 -1.168,-3 -0.552,-1.467 -1.076,-2.817 -1.164,-3 -0.088,-0.183 -0.234,-0.54 -0.326,-0.792 L 346.508,34 h -2.465 -2.464 l -0.301,0.693 m 18.055,10.89 v 11.584 h 7.667 7.667 v -1.75 -1.75 h -5.25 -5.25 V 43.833 34 h -2.417 -2.417 V 45.583 M 154.019,37.989 c 1.014,0.511 1.367,1.05 1.452,2.218 0.184,2.551 -1.67,4.126 -4.857,4.126 H 149.5 v -3.44 -3.439 l 1.894,0.083 c 1.509,0.067 2.043,0.159 2.625,0.452 m -76.146,2.974 c -6.754,10.346 -15.045,16.267 -23.748,16.96 -1.862,0.149 -1.838,0.287 0.117,0.655 8.927,1.68 20.045,-4.972 27.568,-16.495 1.716,-2.628 1.391,-2.42 3.238,-2.063 2.526,0.489 3.785,0.575 3.785,0.258 0,-0.326 -7.725,-1.978 -9.073,-1.94 -0.097,0.003 -0.946,1.184 -1.887,2.625 m 266.043,-0.296 c 0.253,0.687 0.557,1.475 0.675,1.75 0.118,0.275 0.56,1.4 0.981,2.5 0.421,1.1 0.845,2.138 0.941,2.308 0.262,0.456 0.292,0.452 -3.226,0.404 l -3.26,-0.046 0.995,-2.583 c 0.548,-1.421 1.273,-3.31 1.612,-4.199 0.339,-0.889 0.662,-1.564 0.719,-1.5 0.056,0.064 0.309,0.678 0.563,1.366 M 129.329,40.375 c 0.206,0.573 0.473,1.267 0.594,1.542 0.121,0.275 0.567,1.4 0.992,2.5 0.424,1.1 0.886,2.25 1.026,2.555 0.341,0.745 0.521,0.708 -3.148,0.657 l -3.255,-0.046 0.737,-1.916 c 0.404,-1.055 0.837,-2.142 0.962,-2.417 0.124,-0.275 0.508,-1.269 0.853,-2.208 0.738,-2.009 0.754,-2.018 1.239,-0.667 M 62.333,60.76 c -0.871,0.214 -2.52,0.534 -3.666,0.711 -1.782,0.275 -2.362,0.449 -4,1.197 -4.433,2.025 -9.201,3.126 -13.785,3.184 l -1.465,0.018 0.916,0.255 c 1.577,0.438 8.077,0.389 10.5,-0.078 4.032,-0.778 7.846,-2.284 12.045,-4.757 1.041,-0.614 1.503,-0.983 1.174,-0.938 -0.075,0.01 -0.848,0.193 -1.719,0.408 m 14.078,3.582 c -0.17,0.276 0.098,0.461 0.756,0.521 l 0.583,0.054 0.083,1.75 c 0.112,2.343 0.559,2.582 0.625,0.333 0.061,-2.046 0.095,-2.137 0.834,-2.198 0.421,-0.035 0.625,-0.133 0.625,-0.302 0,-0.317 -3.315,-0.467 -3.506,-0.158 m 4.016,1.153 c -0.138,1.589 0.012,2.838 0.342,2.838 0.179,0 0.231,-0.32 0.231,-1.416 0,-1.576 0.104,-1.687 0.785,-0.834 0.58,0.728 0.732,0.728 1.287,0 0.652,-0.855 0.761,-0.737 0.761,0.824 0,1.272 0.158,1.845 0.401,1.452 0.393,-0.635 0.265,-4.192 -0.15,-4.192 -0.122,0 -0.519,0.337 -0.883,0.75 -0.363,0.412 -0.716,0.75 -0.784,0.75 -0.069,0 -0.422,-0.338 -0.785,-0.75 -0.933,-1.06 -1.068,-0.995 -1.205,0.578"
         stroke="none"
         fill="#10549c"
         fill-rule="evenodd" />
      <path
         id="path1"
         d="M 73.486,6.902 C 73.448,6.94 72.629,7.012 71.667,7.063 68.493,7.23 62.109,8.672 57.083,10.355 37.52,16.908 19.189,31.566 14.592,44.333 8.094,62.38 27.73,75.243 53.114,69.567 66.349,66.608 77.776,57.551 87.579,42.25 l 1.068,-1.667 -1.865,-0.28 C 85.756,40.149 84.605,39.952 84.225,39.866 83.34,39.666 83.462,39.554 81.81,42.083 75.966,51.034 67.999,57.15 60.554,58.399 57.315,58.942 52.667,58.79 52.667,58.14 52.667,58.063 52.534,58 52.373,58 49.765,58 46.667,52.798 46.667,48.42 v -1.05 l 0.625,-0.249 C 47.635,46.984 48.517,46.706 49.25,46.502 71.894,40.229 86.957,29.1 83.317,21.333 80.032,14.322 64.74,16.126 51.29,25.112 32.769,37.486 29.393,53.909 44.111,60.032 c 5.14,2.139 13.549,2.293 19.785,0.362 0.581,-0.18 0.123,0.224 -1.018,0.896 -4.201,2.474 -8.019,3.981 -12.045,4.756 -2.504,0.482 -8.774,0.534 -10.416,0.087 -0.55,-0.15 -1.45,-0.397 -2,-0.549 C 27.477,62.555 23.597,49.278 29.894,36.417 36.539,22.845 53.29,12.181 74.901,7.765 78.251,7.08 78.35,7.048 77.484,6.944 76.487,6.825 73.595,6.794 73.486,6.902 m -0.308,12.949 c 3.587,0.77 3.449,6.357 -0.263,10.691 -4.038,4.713 -12.108,9.35 -22.981,13.203 -2.978,1.055 -3.017,1.05 -2.675,-0.331 0.136,-0.548 0.286,-1.185 0.333,-1.414 1.414,-6.875 7.597,-15.321 14.158,-19.338 3.68,-2.253 8.5,-3.439 11.428,-2.811"
         stroke="none"
         fill="#fbc354"
         fill-rule="evenodd" />
      <path
         id="path2"
         d="m 4.33213,39.916065 9.025271,24.031588 15.037036,7.942239 64.49452,0.722021 L 94.333,37.75 93.971989,1.8050542 47.167,3.6101083 14.440433,11.913357 5.4151625,30.890794 M 73.5,6.42 C 72.996,6.54 72.146,6.726 71.612,6.833 70.2,7.118 70.534,7.187 72.429,7.003 77.811,6.479 79.158,6.894 74.901,7.765 57.202,11.382 42.68,19.183 34.286,29.583 23.718,42.676 24.475,58.995 35.907,64.571 40.292,66.71 47.1,66.038 54.583,62.728 L 56.417,61.917 53,61.726 C 50.659,61.595 48.901,61.398 47.417,61.102 46.225,60.864 44.65,60.552 43.917,60.409 32.524,58.185 27.841,49.533 32.652,39.595 39.04,26.396 61.107,13.895 73.25,16.596 c 0.642,0.142 1.617,0.334 2.167,0.426 6.016,1.006 8.36,2.903 8.311,6.728 -0.102,7.862 -14.119,17.112 -34.478,22.752 -0.733,0.204 -1.615,0.482 -1.958,0.619 l -0.625,0.249 v 1.05 c 0,5.555 3.21,9.783 7.22,9.511 8.779,-0.598 17.02,-6.405 23.907,-16.848 0.967,-1.466 1.782,-2.695 1.81,-2.73 0.175,-0.217 9.229,1.561 9.229,1.812 0,0.456 -4.512,6.994 -6.845,9.918 C 68.69,66.751 51.463,73.602 31.917,69.995 27.43,69.167 26.661,68.988 24.407,68.251 14.492,65.009 9.423,58.892 9.424,50.167 v -3.584 l 0.701,-2.048 C 16.12,27.022 43.873,8.623 67.833,6.277 69.748,6.09 74.401,6.207 73.5,6.42 M 68.019,20.087 C 59.51,21.963 50.541,31.269 47.836,41.029 l -0.326,1.177 0.5,-0.1 c 0.851,-0.17 5.269,-2.056 8.24,-3.519 C 66.995,33.3 72.366,27.492 71.523,22.073 71.182,19.887 70.551,19.529 68.019,20.087 M 79.917,64.5 c 0,0.169 -0.204,0.267 -0.625,0.302 -0.739,0.061 -0.773,0.152 -0.834,2.198 -0.066,2.249 -0.513,2.01 -0.625,-0.333 l -0.083,-1.75 -0.583,-0.054 c -0.658,-0.06 -0.926,-0.245 -0.756,-0.521 0.191,-0.309 3.506,-0.159 3.506,0.158 m 1.715,0.417 c 0.363,0.412 0.716,0.75 0.785,0.75 0.068,0 0.421,-0.338 0.784,-0.75 0.364,-0.413 0.761,-0.75 0.883,-0.75 0.415,0 0.543,3.557 0.15,4.192 -0.243,0.393 -0.401,-0.18 -0.401,-1.452 0,-1.561 -0.109,-1.679 -0.761,-0.824 -0.555,0.728 -0.707,0.728 -1.287,0 C 81.104,65.23 81,65.341 81,66.917 c 0,1.096 -0.052,1.416 -0.231,1.416 -0.33,0 -0.48,-1.249 -0.342,-2.838 0.137,-1.573 0.272,-1.638 1.205,-0.578"
         stroke="none"
         fill="#fbfbfb"
         fill-rule="evenodd"
         sodipodi:nodetypes="cccccccccccccccccccccccccccscccsccccccccccccccccccccccccscscsccsscc"
         style="fill:#ffffff;fill-opacity:1" />
    </g>
  </g>
</svg>
