<?xml version="1.0" encoding="utf-8"?>
<!DOCTYPE svg PUBLIC "-//W3C//DTD SVG 20010904//EN" "http://www.w3.org/TR/2001/REC-SVG-20010904/DTD/svg10.dtd">
<svg version="1.0" xmlns="http://www.w3.org/2000/svg" width="552px" height="594px" viewBox="0 0 552 594" preserveAspectRatio="xMidYMid meet">
 <g fill="#ffffff">
  <path d="M0 297 l0 -297 276 0 276 0 0 297 0 297 -276 0 -276 0 0 -297z m157.70 202.80 c4.90 -2.85 6.50 -7.40 4.15 -11.45 -1.50 -2.55 -3.65 -4.10 -10.80 -7.90 -6.30 -3.30 -7.55 -4.75 -7.55 -8.70 0 -2.80 0.95 -4.20 3.65 -5.20 2.40 -0.95 9 -0.65 11.85 0.45 2.05 0.80 2.50 0.85 2.50 0.25 0 -1.10 -1.95 -2.15 -5.65 -3.05 -3.10 -0.80 -3.60 -0.80 -6.60 -0.05 -3.85 0.95 -5.45 1.95 -7.30 4.55 -3.45 4.70 -1 8.80 8.30 13.80 8.35 4.55 9.75 6 9.75 10.35 0 3.85 -1.90 5.70 -6.50 6.40 -2.85 0.40 -8.05 -0.40 -10.65 -1.70 -1.15 -0.55 -2.15 -0.90 -2.25 -0.80 -0.55 0.55 0.45 1.65 2.25 2.50 5.35 2.60 11 2.80 14.85 0.55z m30.70 0.45 c4.60 -2.10 6.95 -5.65 6.30 -9.40 -0.50 -3.10 -4.25 -6.55 -10.70 -9.80 -2.90 -1.45 -6 -3.35 -6.85 -4.20 -1.55 -1.45 -1.65 -1.80 -1.65 -4.70 0 -2.80 0.15 -3.35 1.30 -4.40 0.75 -0.70 2.25 -1.35 3.55 -1.55 3.35 -0.50 9.20 0.05 11.05 1 1.85 0.95 2.60 0.70 1.80 -0.55 -0.90 -1.40 -5.20 -2.80 -8.70 -2.80 -4.05 0 -7.20 1.15 -9.60 3.50 -5.30 5.15 -2.95 9.70 8.15 15.75 2.85 1.55 5.80 3.45 6.55 4.25 3.40 3.55 3.20 8.45 -0.45 10.70 -1.50 0.95 -2.30 1.05 -7.05 0.85 -4.65 -0.15 -5.65 -0.35 -7.70 -1.50 -1.40 -0.80 -2.40 -1.10 -2.40 -0.75 0.05 1.45 1.60 2.50 6 3.90 3.95 1.30 7.25 1.20 10.40 -0.30z m259.80 -0.20 c2.40 -1.20 5.05 -4.20 5.60 -6.40 1.10 -4.30 -2.30 -8.25 -10.85 -12.65 -7.30 -3.80 -8.45 -5 -8.45 -8.95 0 -3.10 0.95 -4.65 3.35 -5.60 2.15 -0.80 8.95 -0.55 11.90 0.50 2.10 0.75 2.75 0.80 2.75 0.30 0 -0.95 -0.95 -1.55 -4.50 -2.75 -3.75 -1.25 -6.70 -1.10 -10.55 0.55 -2.75 1.20 -4.60 3 -5.65 5.55 -0.75 1.70 -0.75 2.05 0 3.90 1.05 2.65 4.10 5.25 9.25 7.95 8.50 4.45 9.95 6 9.95 10.40 0 2.70 -0.85 4.30 -2.90 5.35 -3.45 1.80 -10.35 1.35 -14.70 -0.90 -2.45 -1.30 -3.35 -0.80 -1.50 0.85 0.90 0.80 5.05 2.60 7.10 3 2.60 0.55 6.80 0.05 9.20 -1.10z m-316.40 0.40 c0.75 -1.25 -0.95 -1.55 -8.90 -1.50 -12.45 0.05 -11.40 0.80 -11.40 -8 l0 -7.45 9.50 0 c9.15 0 9.50 -0.05 9.50 -1 0 -0.95 -0.35 -1 -8.85 -1 -4.90 0 -9.15 -0.20 -9.50 -0.40 -0.40 -0.25 -0.55 -2.50 -0.55 -7.50 l0.05 -7.10 9.70 0 c9.65 0 9.65 0 9.65 -1.25 0 -1.25 0 -1.25 -11.45 -1.25 -9.95 0 -11.50 0.10 -11.75 0.80 -0.40 1.05 -0.40 25.85 0 31.60 l0.35 4.60 11.65 0 c7.85 0 11.75 -0.20 12 -0.55z m98.10 -0.55 c-0.15 -1.15 -0.15 -1.15 -8.25 -0.95 -4.45 0.10 -8.90 0 -9.90 -0.15 -1.75 -0.35 -1.75 -0.35 -1.75 -7.80 l0 -7.50 9.25 0 c8.90 0 9.25 -0.05 9.25 -1 0 -0.95 -0.40 -1 -9.10 -1.10 l-9.15 -0.15 -0.15 -7.35 -0.15 -7.40 9.55 0 c9.50 0 9.50 0 9.50 -1.25 0 -1.25 0 -1.25 -11.50 -1.25 l-11.50 0 0 18.50 0 18.50 12.05 0 c12 0 12 0 11.85 -1.10z m14.10 -13.90 c0 -15 0 -15 1.60 -15 1.45 0 3.15 1.55 16.70 15.05 13.55 13.55 15.20 15 16.50 14.85 1.45 -0.15 1.45 -0.15 1.45 -18.40 0 -18.25 0 -18.25 -1.60 -18.40 -1.65 -0.15 -1.65 -0.15 -1.65 14.85 0 20.15 1.35 20.15 -18.75 0.05 -10.65 -10.60 -15.35 -15 -16.15 -15 -1.05 0 -1.10 0.20 -1.10 4.40 0 2.40 0 10.55 0 18.10 -0.05 7.55 -0.05 13.90 0 14.15 0 0.20 0.70 0.35 1.50 0.35 1.50 0 1.50 0 1.50 -15z m66 -2.25 l0 -17.25 8 0 c8 0 8 0 8 -1.25 0 -1.25 0 -1.25 -17.75 -1.25 -17.75 0 -17.75 0 -17.75 1.25 0 1.25 0 1.25 8 1.25 l8 0 0 17.25 c0 17.25 0 17.25 1.75 17.25 1.75 0 1.75 0 1.75 -17.25z m29.75 15.65 c0.15 -0.90 0.20 -9.20 0.15 -18.40 -0.15 -16.75 -0.15 -16.75 -2 -16.90 -1.90 -0.15 -1.90 -0.15 -1.90 18.35 0 18.55 0 18.55 1.75 18.55 1.55 0 1.75 -0.15 2 -1.60z m15.60 -3.90 c1.40 -2.90 2.70 -5.45 2.80 -5.75 0.10 -0.30 4.25 -0.50 11.05 -0.50 9.05 0 11 0.15 11.50 0.75 0.40 0.40 1.85 3.05 3.30 5.90 2.20 4.35 2.75 5.10 3.80 5.10 0.65 0 1.20 -0.15 1.20 -0.30 0 -0.15 -2.15 -4.45 -4.80 -9.60 -2.65 -5.15 -6.85 -13.30 -9.35 -18.10 -2.45 -4.80 -4.75 -8.90 -5 -9.10 -0.30 -0.15 -0.80 -0.20 -1.10 -0.10 -0.35 0.15 -3.10 5.35 -6.15 11.60 -3.05 6.25 -7.10 14.55 -9.05 18.50 -3.55 7.15 -3.55 7.15 -2.20 7 1.25 -0.15 1.70 -0.80 4 -5.40z m68.65 4.50 c0 -0.95 -0.35 -1 -9.60 -1 -5.30 0 -9.95 -0.20 -10.25 -0.40 -0.50 -0.30 -0.65 -4.55 -0.75 -17.40 -0.15 -16.95 -0.15 -16.95 -1.90 -16.95 -1.75 0 -1.75 0 -1.90 17.75 -0.05 9.75 0 18.05 0.15 18.35 0.15 0.50 3.05 0.65 12.25 0.65 11.65 0 12 -0.05 12 -1z m-203.55 -53.85 c4.80 -1.15 6.55 -2 6.55 -3.15 0 -0.90 -0.15 -0.90 -3.60 0.35 -3.20 1.10 -4.50 1.30 -10.40 1.35 -6 0.05 -7.10 -0.10 -9.90 -1.15 -4.10 -1.55 -7.60 -4.70 -9.10 -8.15 -1.70 -3.90 -1.65 -10.70 0.05 -14.15 1.55 -3.20 4.15 -5.65 7.80 -7.50 2.85 -1.50 3.05 -1.50 10.90 -1.50 6.90 0 8.40 0.15 10.90 1.05 2.90 1.05 2.90 1.05 2.75 0 -0.20 -1.45 -6.65 -3.35 -12.40 -3.65 -12.80 -0.75 -23.90 7.25 -24.85 17.90 -0.65 7.15 5.20 14.85 13.60 17.90 5.90 2.15 10.95 2.35 17.70 0.70z m22.30 -5.40 l2.90 -5.75 11.05 0.10 11.05 0.15 3 5.60 c2.45 4.60 3.20 5.65 4.15 5.65 0.60 0 1.10 -0.10 1.10 -0.25 0 -0.15 -2 -4.15 -4.45 -8.90 -2.40 -4.70 -6.60 -12.95 -9.30 -18.20 -3.65 -7.15 -5.15 -9.65 -5.80 -9.65 -0.70 0 -3.05 4.35 -9.95 18.35 -4.95 10.05 -9 18.40 -9 18.50 0 0.05 0.55 0.15 1.20 0.15 1.05 0 1.60 -0.80 4.05 -5.75z m47.75 -2.80 l0 -8.55 4.50 0.20 c4 0.20 4.70 0.35 6.60 1.75 1.20 0.85 4.45 4.55 7.25 8.20 4 5.20 5.40 6.75 6.45 6.85 1.60 0.20 1.75 0.55 -3.65 -6.80 -2.30 -3.10 -5.05 -6.25 -6.15 -7 -1.55 -1.10 -1.95 -1.65 -2 -2.95 0 -1.25 0.35 -1.80 1.65 -2.55 2.30 -1.45 4.15 -3.60 4.90 -5.70 0.50 -1.50 0.50 -2.20 -0.05 -3.90 -0.75 -2.25 -3.70 -5.20 -6.20 -6.25 -2.45 -1.05 -8.70 -1.85 -12.80 -1.65 l-3.75 0.15 -0.15 18.40 c-0.10 18.35 -0.10 18.35 1.65 18.35 1.75 0 1.75 0 1.75 -8.55z m62 7.55 c0 -0.95 -0.35 -1 -10.25 -1 l-10.25 0 0 -7.50 c0 -7.50 0 -7.50 1.65 -7.60 0.85 0 5 -0.10 9.10 -0.10 7.40 -0.05 7.50 -0.05 7.65 -1.15 0.15 -1.15 0.15 -1.15 -9.10 -1.15 l-9.30 0 0 -7.25 c0 -7.25 0 -7.25 1.65 -7.30 0.85 -0.05 5.20 -0.10 9.60 -0.15 8 -0.05 8 -0.05 8 -1.30 0 -1.25 0 -1.25 -11.25 -1.25 l-11.25 0 -0.15 18.40 -0.10 18.35 12 0 c11.65 0 12 -0.05 12 -1z m-92.70 -87.50 c44 -2.90 78.85 -14 112.55 -35.90 28.55 -18.55 59.25 -49.60 82.25 -83.35 1.70 -2.45 3.20 -4.60 3.35 -4.75 0.45 -0.40 3.55 -5 3.55 -5.30 0 -0.10 1.75 -2.85 3.95 -6.10 5.65 -8.50 5.50 -7.90 2.65 -8.55 -1.30 -0.30 -4.95 -1 -8.10 -1.55 -3.15 -0.55 -10.80 -1.90 -17 -3 -6.15 -1.10 -11.60 -2 -12.05 -2 -0.50 0 -2.10 2.15 -4.20 5.65 -25.50 42 -58.10 70.90 -92.60 82.05 -9.50 3.10 -17.70 4.50 -29.15 5.10 -6.45 0.30 -6.90 0.25 -9 -0.80 -13.80 -7 -21.65 -19.80 -24 -39 -0.30 -2.60 -0.50 -6.90 -0.40 -9.50 l0.15 -4.75 11.75 -3.35 c6.45 -1.80 12.45 -3.55 13.25 -3.80 0.85 -0.30 5.55 -1.80 10.50 -3.35 12.45 -3.95 27.70 -9.55 41 -15.15 6.55 -2.70 23.55 -10.45 24.50 -11.10 0.30 -0.20 2.85 -1.60 5.75 -3.10 2.90 -1.55 7.50 -4.05 10.25 -5.65 2.75 -1.60 6 -3.45 7.25 -4.15 1.25 -0.70 4.75 -2.95 7.75 -5 27.05 -18.45 42.20 -36.95 43.55 -53.30 1 -11.70 -6.60 -22.35 -19.55 -27.35 -5.60 -2.20 -12.20 -3.75 -17.45 -4.20 -2.45 -0.20 -5.40 -0.70 -6.50 -1.05 -9.95 -3.50 -25.80 -3.85 -42.80 -0.85 -34.45 6 -76.75 27.30 -108.85 54.80 -27.90 23.95 -46.05 50.40 -51.45 75.10 -1.10 5.10 -1.45 15.40 -0.70 20.10 1.30 8.30 5.45 18.05 10.50 24.70 5.70 7.60 15.85 15.70 25.75 20.60 9.45 4.65 22.45 8.55 33.10 9.80 1.85 0.25 5.90 1 8.90 1.70 9.75 2.25 15.30 2.85 29.65 3.20 13.60 0.30 13.60 0.30 13.60 1.90 0 1.55 -0.20 1.70 -5.85 4.40 -15.35 7.30 -31.80 12.40 -46.90 14.55 -15.40 2.20 -30.55 2.15 -37.50 -0.05 -7.45 -2.35 -16 -6.80 -22.30 -11.50 -7.35 -5.50 -16.35 -15.50 -20.35 -22.65 -4.60 -8.15 -7.90 -18.25 -9.70 -29.50 -0.90 -5.70 -0.85 -29.75 0.05 -35.25 4.75 -29 17.25 -54.70 38.55 -79.45 2.40 -2.80 8.25 -8.90 13.05 -13.55 19.05 -18.65 41.80 -34.55 69.20 -48.50 13.05 -6.60 16.25 -8.05 29.75 -13.50 23 -9.25 50.80 -17.55 74.75 -22.25 3 -0.60 5.60 -1.20 5.75 -1.35 0.30 -0.30 -8.40 0.20 -15.70 0.90 -2.70 0.25 -6.35 0.45 -8.10 0.45 -3.20 0 -3.20 0 -3.20 -1.70 0 -1.70 0 -1.70 3.65 -2.35 9.85 -1.75 -8.45 -0.70 -23.40 1.35 -66.95 9.30 -144.15 45.95 -199.50 94.85 -2.45 2.15 -8.30 7.70 -12.90 12.30 -27.60 27.20 -44.80 54.25 -51.15 80.30 -1.10 4.65 -1.20 5.90 -1.20 18 0 9.50 0.20 13.80 0.75 16.05 2.80 12 8.85 23.80 17.35 33.95 6.10 7.30 12.70 13 22.40 19.35 13.10 8.60 32.75 16.15 50.25 19.35 3.30 0.60 9.25 1.75 13.25 2.55 21.95 4.45 38.25 5.70 57.30 4.50z m176.10 -27 c-0.75 -1.15 -1.40 -1.30 -1.40 -0.35 0 0.85 0.50 1.35 1.35 1.35 0.55 0 0.55 -0.20 0.05 -1z m14.60 0 c0 -0.55 -0.10 -1 -0.15 -1 -0.10 0 -0.60 0.45 -1.10 1 -0.90 0.95 -0.85 1 0.15 1 0.75 0 1.10 -0.30 1.10 -1z"/>
  <path d="M361.50 485 c0 -1.40 0.90 -3.85 3 -8.25 2.95 -6.25 2.95 -6.25 4.85 -6.20 1.90 0 1.90 0 5.05 6.45 2.05 4.20 3.10 7.05 3.10 8.20 0 1.80 0 1.80 -8 1.80 -8 0 -8 0 -8 -2z"/>
  <path d="M248.75 432.55 c-0.85 -0.80 0.10 -4.20 2.75 -9.70 3 -6.35 3 -6.35 4.90 -6.35 1.85 0 1.85 0 5.25 6.70 3 6 4.05 9.20 3 9.35 -1.10 0.20 -15.75 0.20 -15.90 0z"/>
  <path d="M290.90 427.25 c-0.25 -0.25 -0.40 -3.75 -0.40 -7.85 l0 -7.40 5.25 0 c8.80 0 10.75 1.40 10.75 7.65 0 3.35 -0.10 3.80 -1.35 4.95 -0.80 0.75 -2.05 1.60 -2.80 1.85 -1.80 0.70 -10.95 1.30 -11.45 0.80z"/>
  <path d="M276 223.70 c0 -5 5.55 -20.75 11.15 -31.75 19 -37.20 53.10 -67.10 84.35 -74 2.35 -0.50 6.90 -1.20 10.20 -1.55 5.95 -0.60 5.95 -0.60 7.30 0.95 2.60 2.90 3.60 6.65 3.85 14.40 0.35 10.45 -1.30 16.90 -6.50 25.50 -9.95 16.25 -27.85 30.90 -57.10 46.65 -15.10 8.10 -45.70 21.35 -50.85 21.95 -2.40 0.30 -2.40 0.30 -2.40 -2.15z"/>
 </g>
 <g fill="#ffc056">
  <path d="M231.75 359.45 c-10.10 -0.85 -18.45 -2 -25.75 -3.50 -4 -0.80 -8.60 -1.75 -10.25 -2 -13.40 -2.35 -18.75 -4.10 -30.30 -10 -23.45 -11.95 -40.15 -30.05 -47.45 -51.35 -2.70 -8 -4.50 -18.45 -4.50 -26.35 0 -4.50 1.15 -14.40 2.20 -19.25 3.80 -17.35 12.85 -35.80 26.70 -54.25 12.95 -17.20 34.80 -39.15 53.10 -53.30 30.45 -23.55 56.55 -39.05 93.75 -55.70 4.35 -1.95 12.45 -5.25 15.50 -6.40 1.95 -0.70 5.40 -2 7.75 -2.85 18.20 -6.70 38.55 -12.30 56.75 -15.50 3.05 -0.55 7.40 -1.45 9.75 -1.95 4.10 -0.95 14.50 -1.45 11.50 -0.55 -0.70 0.25 -1.85 0.40 -2.60 0.45 -0.80 0.05 -1.40 0.30 -1.40 0.60 0 0.40 0.90 0.50 2.90 0.25 8.55 -0.95 18.25 -1.30 26 -1 4.70 0.20 8.60 0.50 8.60 0.70 0 0.20 -1.50 0.50 -3.35 0.70 -1.90 0.20 -5.85 0.90 -8.90 1.55 -3 0.65 -6.85 1.45 -8.50 1.75 -20.75 4 -50.30 12.90 -72.25 21.75 -13.50 5.45 -16.70 6.90 -29.75 13.50 -10 5.10 -13.85 7.25 -24.50 13.75 -25.15 15.35 -50.05 37.40 -65.80 58.30 -16.55 21.80 -26.50 44.55 -30.50 69.45 -0.90 5.50 -0.90 26.70 -0.05 32.25 1.80 11.25 5.10 21.35 9.70 29.50 4 7.15 13 17.15 20.35 22.65 9.40 7.05 22.80 12.85 29.55 12.85 1.85 0 6.40 0.45 10.05 1 8.50 1.30 22.90 1.40 31.70 0.25 10.30 -1.35 21.90 -3.95 31 -7 7.90 -2.60 22.25 -9.15 30.25 -13.75 3.10 -1.80 3.50 -1.75 -5.25 -0.30 -5.40 0.90 -17 2.30 -18.75 2.30 -1.25 -0.05 -1.25 -0.05 0 -0.75 1.10 -0.65 0.30 -0.70 -8 -0.75 -15.45 -0.05 -24.40 -0.95 -36.25 -3.70 -2.75 -0.65 -6.95 -1.45 -9.30 -1.75 -12.10 -1.60 -29.05 -12.65 -38.70 -25.30 -2.65 -3.50 -7.25 -12 -7.25 -13.45 0 -0.40 -0.20 -0.85 -0.45 -1 -0.25 -0.15 -0.55 -0.90 -0.70 -1.65 -0.15 -0.80 -0.60 -2.80 -1.05 -4.50 -2.25 -8.95 -2.10 -20.95 0.50 -32 7.15 -30.85 35.55 -65 76.95 -92.50 34.30 -22.80 73.85 -37.15 102.30 -37.15 4.15 0 7 0.25 8.30 0.70 1.10 0.40 4 0.85 6.45 1.05 8.35 0.70 18.80 4 24.55 7.75 6.25 4.10 10.90 10.75 12.20 17.40 0.85 4.60 0.35 11.95 -1.25 16.95 -3.85 11.95 -15.70 26.15 -32.55 38.95 -5 3.80 -14.30 10.15 -17.25 11.80 -1.25 0.70 -4.50 2.55 -7.25 4.15 -2.75 1.60 -7.35 4.10 -10.25 5.65 -2.90 1.50 -5.45 2.90 -5.75 3.10 -0.95 0.65 -17.95 8.40 -24.50 11.10 -13.30 5.60 -28.55 11.20 -41 15.15 -4.95 1.55 -9.65 3.05 -10.50 3.35 -0.80 0.25 -6.80 2 -13.25 3.80 -11.75 3.35 -11.75 3.35 -11.90 6.60 -0.30 6 1.40 16.20 3.85 23.10 3.05 8.75 8.55 16.15 15.30 20.75 5.15 3.50 7 4.20 10.15 4.10 1.55 -0.05 4.75 0.30 7.10 0.80 8.85 2 24.25 0.85 37.25 -2.75 30.75 -8.40 62.20 -33.20 86.90 -68.45 2.40 -3.40 5.50 -8.10 6.95 -10.50 1.40 -2.35 3.15 -5.05 3.85 -6 1.20 -1.60 1.35 -1.65 3.80 -1.40 1.35 0.15 6.95 1.05 12.40 2.05 5.45 1 10.45 1.80 11.15 1.80 1.45 0 1.45 0.15 0.25 1.90 -2.45 3.55 -9.05 13.60 -9.05 13.80 0 0.30 -3.10 4.90 -3.55 5.30 -0.15 0.15 -1.65 2.30 -3.35 4.75 -23 33.75 -53.70 64.80 -82.25 83.35 -32.25 21 -65.10 31.85 -107.35 35.60 -5.95 0.55 -29.55 0.70 -34.75 0.25z m51.50 -128.35 c1.65 -0.55 4.90 -1.75 7.25 -2.60 2.35 -0.90 4.80 -1.75 5.50 -2 1.25 -0.35 14.90 -5.70 16.75 -6.55 0.55 -0.25 2.80 -1.20 5 -2.10 23 -9.65 47.05 -23.25 61.80 -34.90 6.60 -5.20 15.95 -14.55 19.70 -19.60 8.35 -11.40 11.75 -23.10 9.55 -32.50 -1.90 -7.75 -6.65 -11.25 -16.05 -11.70 -3.15 -0.20 -5.30 -0.55 -5.80 -0.95 -1.50 -1.30 -13.70 0.75 -22.70 3.80 -28.55 9.70 -58.50 38.05 -75.60 71.45 -3.40 6.70 -7.85 17.80 -9.70 24.30 -1.65 5.75 -1.80 6.85 -0.70 6.45 0.95 -0.40 0.95 0.90 0 3.55 -0.40 1.10 -0.70 2.70 -0.75 3.60 0 1.80 -0.40 1.80 5.75 -0.25z"/>
 </g>
 <g fill="#00519c">
  <path d="M145.50 502.30 c-1.25 -0.30 -3.20 -1.05 -4.25 -1.60 -2 -1.05 -2 -1.05 -2.15 -4.60 -0.10 -2 0 -3.60 0.15 -3.60 0.20 0 1.25 0.80 2.35 1.75 5.15 4.40 13.95 4.50 16.35 0.20 1.70 -3.05 -0.60 -5.75 -8.70 -10.15 -8.50 -4.60 -11.25 -8.15 -10.45 -13.35 0.45 -2.55 2.85 -5.80 5.30 -7.05 4.45 -2.35 12.10 -2.35 16.75 -0.05 1.85 0.90 1.90 0.95 2.05 4.05 0.15 3.25 -0.30 3.80 -1.85 2.40 -1.45 -1.30 -6.05 -2.80 -8.55 -2.80 -2.85 0 -4.80 0.65 -6.35 2.10 -2.75 2.60 -0.70 5.60 6.40 9.35 7.20 3.80 9.30 5.35 10.80 7.95 1.70 2.90 1.85 6.95 0.35 9.85 -1.25 2.35 -4.50 5 -7.10 5.75 -2.45 0.65 -8.30 0.60 -11.10 -0.20z"/>
  <path d="M176.50 502.05 c-3.15 -1 -5.10 -1.95 -5.60 -2.75 -0.55 -0.80 -0.50 -6.20 0.05 -6.55 0.30 -0.15 1.25 0.40 2.15 1.15 2.75 2.45 4.90 3.25 9 3.50 3.25 0.20 4.10 0.05 5.55 -0.85 2.20 -1.35 3 -3.10 2.30 -4.90 -0.85 -2.35 -2.95 -4.10 -8.40 -7.05 -8.40 -4.60 -11.05 -7.50 -11.05 -12.10 0 -2.65 1 -4.90 3.05 -6.85 4.10 -3.90 13.30 -4.70 19.45 -1.75 1.70 0.85 1.75 0.95 1.90 4 0.10 1.70 -0.05 3.10 -0.30 3.10 -0.25 0 -1.65 -0.70 -3.20 -1.50 -6.55 -3.55 -14.40 -2.10 -14.40 2.65 0 2.30 2.10 4.15 8.50 7.40 6.80 3.45 10.25 6.70 10.75 10.15 0.85 5.65 -1 9.35 -5.90 11.80 -2.65 1.30 -3.55 1.50 -7.05 1.45 -2.45 0 -5.15 -0.35 -6.80 -0.90z"/>
  <path d="M437.50 502.65 c-2.05 -0.40 -6.20 -2.20 -7.10 -3 -0.65 -0.60 -0.90 -1.60 -0.90 -3.70 0 -1.60 0.25 -3.05 0.50 -3.20 0.30 -0.20 1.45 0.50 2.60 1.45 5.15 4.45 13.90 4.55 16.35 0.25 1.70 -3.05 -0.65 -5.80 -8.40 -9.95 -2.85 -1.50 -6.05 -3.50 -7.15 -4.45 -2.35 -2 -3.90 -5 -3.90 -7.55 0 -2.15 1.45 -5.35 3.05 -6.85 3.65 -3.35 11.35 -4.55 16.95 -2.65 1.80 0.60 3.55 1.30 3.90 1.60 0.75 0.65 0.85 6.40 0.05 6.40 -0.30 0 -1.15 -0.40 -1.85 -0.95 -3.10 -2.20 -9.25 -3.25 -12.25 -2.10 -1.85 0.70 -3.35 2.55 -3.35 4.10 0 2.25 2.15 4.15 8.45 7.45 7.20 3.70 10.05 6.40 11 10.35 0.75 3.10 0.20 5.60 -1.90 8.50 -2.20 3.05 -5.35 4.40 -10.55 4.50 -2.35 0 -4.80 -0.05 -5.50 -0.20z"/>
  <path d="M106.35 502.15 c-0.45 -0.70 -0.35 -38.40 0.05 -39.05 0.35 -0.45 3.35 -0.60 13.40 -0.50 12.95 0.15 12.95 0.15 12.95 2.65 0 2.50 0 2.50 -9.75 2.65 l-9.75 0.10 -0.05 5.65 c-0.05 3.65 0.10 5.75 0.50 5.95 0.30 0.20 4.55 0.40 9.45 0.40 8.85 0 8.85 0 8.85 2.50 0 2.50 0 2.50 -9.40 2.50 l-9.35 0 -0.15 5.95 c-0.15 5.95 -0.15 5.95 1.50 6.20 0.90 0.10 5.30 0.20 9.80 0.10 9.05 -0.10 9.25 0 9 3.10 -0.15 1.90 -0.15 1.90 -13.50 2.05 -7.35 0.05 -13.45 -0.05 -13.55 -0.25z"/>
  <path d="M204.50 482.50 l0 -20 13.15 0.10 c13.10 0.15 13.10 0.15 13.10 2.65 0 2.50 0 2.50 -9.65 2.65 l-9.65 0.10 0.15 5.90 0.15 5.85 9.25 0.25 c9.25 0.25 9.25 0.25 9.25 2.50 0 2.25 0 2.25 -9.35 2.40 l-9.40 0.10 0 6 c0 5.35 0.10 6 0.90 6.10 0.45 0.05 4.90 0.10 9.85 0.10 9 0.05 9 0.05 9.15 2.70 0.15 2.60 0.15 2.60 -13.35 2.60 l-13.55 0 0 -20z"/>
  <path d="M239.45 502.40 c-0.15 -0.55 -0.25 -38.80 -0.05 -39.25 0.15 -0.40 1.15 -0.65 2.75 -0.65 2.55 0 2.55 0 17.60 15 8.25 8.25 15.20 15 15.40 15 0.20 0 0.35 -6.75 0.35 -15 l0 -15.05 3.15 0.15 3.10 0.15 0 19.75 0 19.75 -2.95 0.15 c-2.95 0.15 -2.95 0.15 -18.15 -15 l-15.15 -15.15 0 15.15 0 15.10 -3 0 c-1.65 0 -3 -0.05 -3.05 -0.10z"/>
  <path d="M305 502.15 c0 -0.25 -0.05 -8 -0.05 -17.25 l0 -16.90 -8.10 -0.10 c-8.10 -0.15 -8.10 -0.15 -8.15 -1.90 -0.20 -3.80 -1.85 -3.50 19.55 -3.50 19.15 0 19.15 0 19.35 2.55 0.05 1.40 0.05 2.65 -0.05 2.75 -0.10 0.10 -3.80 0.20 -8.15 0.20 l-7.90 0 0 17.25 0 17.25 -3.25 0 c-1.80 0 -3.25 -0.15 -3.25 -0.35z"/>
  <path d="M334.50 482.50 l0 -20.05 3.40 0.15 3.35 0.15 0.15 18.25 c0.05 10.05 0 19 -0.15 19.90 -0.30 1.60 -0.30 1.60 -3.50 1.60 l-3.25 0 0 -20z"/>
  <path d="M347.50 502.10 c0 -0.85 19.10 -39.35 19.65 -39.70 0.75 -0.50 3.45 -0.50 4.15 0 0.30 0.20 2.45 4.05 4.80 8.60 10.60 20.45 15.90 30.90 15.90 31.20 0 0.15 -1.55 0.30 -3.45 0.30 -3.45 0 -3.45 0 -6.25 -5.50 -1.55 -3 -3.05 -5.60 -3.30 -5.75 -0.80 -0.50 -19.20 -0.40 -19.40 0.05 -0.10 0.25 -1.35 2.80 -2.75 5.70 -2.60 5.25 -2.60 5.25 -5.95 5.40 -1.90 0.10 -3.40 -0.05 -3.40 -0.30z m28.40 -17.20 c-0.40 -1.50 -6.20 -12.85 -6.55 -12.85 -0.40 -0.05 -6.35 12.10 -6.35 12.95 0 0.30 2.50 0.50 6.55 0.50 5 0 6.50 -0.15 6.35 -0.60z"/>
  <path d="M398.25 501.85 c-0.15 -0.30 -0.20 -9.25 -0.15 -19.85 l0.15 -19.25 3.25 0 3.25 0 0.15 16.95 c0.10 12.85 0.25 17.10 0.75 17.40 0.30 0.20 4.90 0.30 10.10 0.25 9.50 -0.05 9.50 -0.05 9.65 2.55 0.15 2.60 0.15 2.60 -13.40 2.60 -10.40 0 -13.60 -0.15 -13.75 -0.65z"/>
  <path d="M206.75 448.50 c-12.75 -2.30 -20.70 -11.60 -19.20 -22.35 0.90 -6.45 4.75 -11.80 10.75 -15 6.45 -3.45 15.70 -4.15 24.20 -1.90 2.60 0.70 4.95 1.50 5.20 1.75 0.25 0.25 0.55 1.60 0.60 3 0.15 3.10 -0.40 3.45 -3.15 2.05 -3.80 -1.90 -8 -2.65 -13.65 -2.45 -4.50 0.20 -5.65 0.45 -8.15 1.65 -5.85 2.90 -8.90 7.35 -8.90 12.95 0 6.30 3.75 11.45 10.05 13.80 6 2.25 15.20 1.40 22.10 -2.05 1.05 -0.55 2 -0.95 2.15 -0.95 0.15 0 0.25 1.40 0.15 3.10 -0.15 2.95 -0.25 3.20 -1.65 3.85 -4.60 2.20 -15.15 3.50 -20.50 2.55z"/>
  <path d="M234.50 448.15 c0 -0.30 4.40 -9.40 9.75 -20.30 9.80 -19.85 9.80 -19.85 12.20 -19.85 2.40 0 2.40 0 6.80 8.65 2.40 4.70 6.95 13.60 10.10 19.75 3.15 6.10 5.55 11.35 5.40 11.60 -0.15 0.25 -1.65 0.35 -3.30 0.30 -3.05 -0.15 -3.05 -0.15 -6.10 -5.85 l-3.10 -5.70 -9.55 -0.15 -9.55 -0.10 -2.90 5.75 c-2.35 4.80 -3.05 5.75 -4 5.75 -0.60 0 -2.15 0.15 -3.45 0.30 -1.40 0.20 -2.30 0.15 -2.30 -0.15z m28.30 -17.10 c0.55 -0.05 -5.80 -13.05 -6.40 -13.05 -0.50 0 -6.45 12.50 -6.20 12.95 0.15 0.25 9.45 0.30 12.60 0.10z"/>
  <path d="M287.35 448 c-1.90 -0.25 -1.90 -0.25 -2 -19.85 -0.10 -15.95 0 -19.70 0.55 -19.90 1.45 -0.55 11.70 -0.20 15.40 0.50 7.05 1.35 10.70 5 10.70 10.75 0 4 -1.70 6.75 -5.60 9.25 -1.40 0.85 -1.40 0.85 0.60 2.30 1.65 1.20 5.25 5.65 12.95 16.05 0.40 0.50 0.60 1.05 0.45 1.15 -0.10 0.10 -1.95 0.05 -4.05 -0.15 -3.85 -0.35 -3.85 -0.35 -9 -7.05 -6.10 -8 -8 -9.50 -12.30 -9.90 -3.05 -0.30 -3.05 -0.30 -3.05 8.30 0 4.70 -0.15 8.60 -0.35 8.60 -1.20 0.20 -2.60 0.20 -4.30 -0.05z m13.65 -23.10 c0.70 -0.25 1.85 -1.05 2.65 -1.80 1.05 -1 1.35 -1.75 1.35 -3.45 0 -4.30 -2.80 -6.15 -9.25 -6.15 -3.75 0 -3.75 0 -3.75 5.90 0 3.25 0.15 6.10 0.35 6.30 0.45 0.45 6.90 -0.15 8.65 -0.80z"/>
  <path d="M327 447.90 c-0.30 -2.50 0.05 -39.15 0.40 -39.50 0.20 -0.20 6.05 -0.35 12.90 -0.30 12.45 0.15 12.45 0.15 12.45 2.90 0 3 1.25 2.80 -17.60 3 -1.65 0 -1.65 0 -1.65 5.75 l0 5.75 9.35 0.10 c9.35 0.15 9.35 0.15 9.30 2 -0.05 3.55 0.15 3.45 -8 3.40 -4.10 -0.05 -8.15 -0.05 -9 0 -1.65 0 -1.65 0 -1.65 6 l0 6 10.25 0 c10.25 0 10.25 0 10.25 2.50 0 2.50 0 2.50 -13.50 2.50 -7.40 0 -13.50 -0.05 -13.50 -0.10z"/>
  <path d="M186 352.20 c-30.35 -6.40 -55.55 -20.05 -70.90 -38.45 -8.50 -10.15 -14.55 -21.95 -17.35 -33.95 -0.55 -2.30 -0.75 -6.75 -0.75 -17.55 0 -13.65 0.05 -14.80 1.20 -19.50 8 -32.70 34.10 -68.30 74.55 -101.50 64.60 -53.05 154.35 -88.80 221.40 -88.20 5.45 0.05 10 0.25 10.10 0.50 0.15 0.20 -1.95 0.75 -4.60 1.20 -2.70 0.50 -9.15 1.75 -14.40 2.85 -5.20 1.10 -11.75 2.40 -14.50 2.90 -18.30 3.25 -38.65 8.80 -56.75 15.50 -2.35 0.85 -5.80 2.15 -7.75 2.85 -3.05 1.15 -11.15 4.45 -15.50 6.40 -37.20 16.65 -63.30 32.15 -93.75 55.70 -13.25 10.20 -34.95 30.95 -44.55 42.55 -23.15 27.90 -34.55 51.50 -37 76.75 -0.55 5.65 -0.50 7.40 0.20 13 1 7.95 1.80 11.80 3.85 17.85 3.90 11.30 10.10 21.30 19.25 30.85 12.15 12.70 30.20 23.25 50.50 29.60 2.75 0.85 5.25 1.60 5.50 1.70 1.95 0.65 -4.05 -0.05 -8.75 -1.05z"/>
  <path d="M420.95 347.65 c0 -0.25 0 -4.05 0 -8.50 0 -8.10 0 -8.10 -3.35 -8.25 -3.25 -0.15 -3.35 -0.20 -3.50 -1.50 -0.15 -1.40 -0.15 -1.40 8.40 -1.40 8.55 0 8.55 0 8.40 1.40 -0.15 1.30 -0.25 1.35 -3.50 1.50 -3.40 0.15 -3.40 0.15 -3.40 8.60 0 8.50 0 8.50 -1.50 8.50 -0.80 0 -1.50 -0.15 -1.55 -0.35z"/>
  <path d="M433.30 347.55 c-0.20 -0.25 -0.30 -4.65 -0.25 -9.75 0.05 -9.80 0.25 -10.70 2.30 -9.95 0.60 0.25 2.35 2.05 3.90 4.05 1.60 1.95 3.05 3.60 3.25 3.60 0.15 0 1.45 -1.40 2.85 -3.15 3.50 -4.30 4.40 -5 5.60 -4.60 1 0.30 1.05 0.65 1.05 10.30 0 9.95 0 9.95 -1.50 9.95 -1.50 0 -1.50 0 -1.60 -5.60 -0.05 -3.10 -0.05 -6.40 0.05 -7.25 0.05 -0.90 -0.10 -1.65 -0.35 -1.65 -0.30 0 -1.60 1.45 -2.90 3.25 -1.35 1.75 -2.70 3.20 -3.05 3.25 -0.30 0 -1.75 -1.45 -3.20 -3.25 -1.45 -1.80 -2.85 -3.25 -3.05 -3.25 -0.30 0 -0.40 3.15 -0.35 7.15 0.15 7.10 0.15 7.10 -1.15 7.25 -0.70 0.10 -1.45 -0.05 -1.60 -0.35z"/>
  <path d="M258.25 339 c-8.35 -0.50 -18.75 -2.25 -19.70 -3.35 -0.20 -0.15 1.90 -0.15 4.55 0 5.50 0.35 15.85 -0.25 24.15 -1.45 15.70 -2.25 34.20 -8.15 49.25 -15.70 4.25 -2.10 5.35 -2.45 10 -2.95 9.40 -1.05 18.95 -2.85 25.95 -4.85 6.40 -1.80 6.30 -1.70 -3.15 4 -10.05 6.10 -25.50 13.40 -35.05 16.55 -18.10 6.05 -38.05 8.80 -56 7.75z"/>
  <path d="M260.65 310.25 c-18.70 -3.85 -33.60 -11.10 -44.65 -21.60 -10.90 -10.35 -16.70 -22.20 -17.95 -36.60 -1.10 -12.65 2 -26.35 9.20 -41 16.80 -33.80 54.85 -67.95 100.45 -90.10 22.85 -11.05 42.95 -17.15 63.30 -19.10 12.20 -1.20 19.50 -0.95 28.85 0.90 7.65 1.55 7.20 1.95 -2.60 2.30 -9.30 0.30 -9.80 0.35 -19 2 -39.65 7.10 -87.90 33.70 -120.75 66.45 -17.20 17.20 -28.90 34.15 -35.20 51.10 -3.90 10.50 -5.70 22 -4.80 30.80 0.30 2.90 0.90 6.65 1.30 8.30 0.45 1.70 0.90 3.65 1.05 4.45 0.15 0.75 0.45 1.50 0.70 1.65 0.25 0.15 0.45 0.60 0.45 1 0 1.45 4.60 9.95 7.25 13.45 8.50 11.15 21.10 20 36 25.25 6.55 2.30 5.20 2.60 -3.60 0.75z"/>
  <path d="M313.75 302.20 c-3.30 -0.35 -12.25 -2.30 -12.50 -2.75 -0.15 -0.20 1.25 -0.50 3.10 -0.65 13.55 -1.15 19.65 -2.25 28.30 -5.10 18.40 -5.95 34.50 -15.75 51.95 -31.55 14.65 -13.30 28.50 -30.55 40.70 -50.60 1.90 -3.10 3.70 -5.80 4.05 -5.90 0.35 -0.15 6.55 0.80 13.75 2.10 7.25 1.30 16.15 2.90 19.85 3.55 8.80 1.55 10.15 2 9.95 3.35 -0.10 0.85 -0.55 1.15 -1.90 1.25 -1.45 0.10 -18.65 -2.65 -22.65 -3.65 -1.40 -0.35 -2.25 0.60 -6.25 7.30 -9.25 15.40 -25.20 34.70 -38.40 46.55 -26.55 23.75 -52.20 35.30 -80.20 36.10 -4.25 0.10 -8.65 0.10 -9.75 0z"/>
  <path d="M275.25 235 c-0.15 -0.25 -0.20 -0.70 -0.05 -0.95 0.15 -0.25 0.50 -2.10 0.80 -4.10 0.55 -3.80 1.50 -5.95 2.70 -5.95 1.15 0 20.95 -8.10 31.05 -12.70 31.35 -14.30 57 -31.80 69.35 -47.35 9.15 -11.50 12.75 -21 12.25 -32.20 -0.25 -6 -1.45 -10.10 -3.60 -12.70 -1.20 -1.40 -1.20 -1.40 1.70 -1.70 1.70 -0.20 4.75 -0.05 7.15 0.35 10.45 1.70 14.35 6.95 14.40 19.40 0 9.20 -3.35 18.30 -10.25 27.75 -3.75 5.05 -13.10 14.40 -19.70 19.60 -14.75 11.65 -38.80 25.25 -61.80 34.90 -2.20 0.90 -4.45 1.85 -5 2.10 -1.85 0.85 -15.50 6.20 -16.75 6.55 -0.70 0.25 -3.15 1.10 -5.50 2 -5 1.85 -15.75 5.50 -16.15 5.50 -0.15 0 -0.45 -0.20 -0.60 -0.50z"/>
 </g>
</svg>